<svg xmlns="http://www.w3.org/2000/svg" xmlns:xlink="http://www.w3.org/1999/xlink" width="172" zoomAndPan="magnify" viewBox="0 0 129 100.499997" height="134" preserveAspectRatio="xMidYMid meet" version="1.2"><defs><clipPath id="1e1165ead6"><path d="M 26.441406 0 L 102.421875 0 L 102.421875 56.71875 L 26.441406 56.71875 Z M 26.441406 0 "/></clipPath></defs><g id="06c17604fb"><g clip-rule="nonzero" clip-path="url(#1e1165ead6)"><path style=" stroke:none;fill-rule:nonzero;fill:#ffffff;fill-opacity:1;" d="M 31.199219 56.410156 L 97.800781 56.410156 C 98.617188 56.410156 99.375 56.207031 100.078125 55.800781 C 100.785156 55.394531 101.339844 54.839844 101.746094 54.132812 C 102.152344 53.429688 102.355469 52.671875 102.355469 51.859375 C 102.355469 51.046875 102.152344 50.285156 101.746094 49.582031 L 74.441406 2.296875 C 74.035156 1.59375 73.480469 1.035156 72.773438 0.628906 C 72.070312 0.222656 71.3125 0.0195312 70.496094 0.0195312 C 69.683594 0.0195312 68.921875 0.222656 68.21875 0.628906 C 67.515625 1.035156 66.957031 1.59375 66.554688 2.296875 L 55.125 22.089844 L 53.0625 18.519531 C 52.65625 17.8125 52.101562 17.257812 51.398438 16.851562 C 50.691406 16.441406 49.933594 16.238281 49.121094 16.238281 C 48.304688 16.238281 47.546875 16.441406 46.84375 16.851562 C 46.136719 17.257812 45.582031 17.8125 45.175781 18.519531 L 27.257812 49.582031 C 26.851562 50.285156 26.648438 51.046875 26.648438 51.859375 C 26.648438 52.671875 26.851562 53.429688 27.257812 54.132812 C 27.664062 54.839844 28.21875 55.394531 28.925781 55.800781 C 29.628906 56.207031 30.386719 56.410156 31.203125 56.410156 Z M 70.503906 3.058594 C 70.773438 3.054688 71.027344 3.121094 71.261719 3.257812 C 71.5 3.390625 71.683594 3.578125 71.816406 3.816406 L 99.121094 51.097656 C 99.1875 51.214844 99.238281 51.335938 99.273438 51.464844 C 99.308594 51.59375 99.324219 51.722656 99.324219 51.855469 C 99.324219 51.992188 99.308594 52.121094 99.273438 52.25 C 99.238281 52.378906 99.1875 52.5 99.121094 52.617188 C 99.054688 52.730469 98.976562 52.835938 98.882812 52.929688 C 98.785156 53.023438 98.683594 53.105469 98.566406 53.171875 C 98.453125 53.238281 98.328125 53.289062 98.199219 53.324219 C 98.074219 53.355469 97.941406 53.375 97.808594 53.375 L 31.199219 53.375 C 31.066406 53.375 30.933594 53.355469 30.804688 53.324219 C 30.675781 53.289062 30.554688 53.238281 30.441406 53.171875 C 30.324219 53.105469 30.21875 53.023438 30.125 52.929688 C 30.03125 52.835938 29.953125 52.730469 29.882812 52.617188 C 29.816406 52.5 29.769531 52.378906 29.734375 52.25 C 29.699219 52.121094 29.679688 51.992188 29.679688 51.855469 C 29.679688 51.722656 29.699219 51.59375 29.734375 51.464844 C 29.769531 51.335938 29.816406 51.214844 29.886719 51.097656 L 47.8125 20.035156 C 47.878906 19.921875 47.960938 19.816406 48.054688 19.722656 C 48.148438 19.628906 48.253906 19.546875 48.367188 19.480469 C 48.484375 19.414062 48.605469 19.363281 48.734375 19.328125 C 48.863281 19.292969 48.996094 19.277344 49.128906 19.277344 C 49.261719 19.277344 49.390625 19.292969 49.519531 19.328125 C 49.648438 19.363281 49.769531 19.414062 49.886719 19.480469 C 50 19.546875 50.105469 19.628906 50.199219 19.722656 C 50.292969 19.816406 50.375 19.921875 50.441406 20.035156 L 52.503906 23.605469 C 52.636719 23.835938 52.796875 24.046875 52.984375 24.234375 C 53.171875 24.421875 53.382812 24.585938 53.613281 24.71875 C 53.84375 24.851562 54.085938 24.953125 54.34375 25.019531 C 54.601562 25.089844 54.863281 25.125 55.128906 25.125 C 55.394531 25.125 55.65625 25.089844 55.914062 25.019531 C 56.171875 24.953125 56.417969 24.851562 56.648438 24.71875 C 56.878906 24.585938 57.085938 24.421875 57.273438 24.234375 C 57.464844 24.046875 57.625 23.835938 57.757812 23.605469 L 69.1875 3.816406 C 69.324219 3.578125 69.507812 3.390625 69.742188 3.257812 C 69.976562 3.121094 70.230469 3.054688 70.503906 3.058594 Z M 70.503906 3.058594 "/></g><g style="fill:#ffffff;fill-opacity:1;"><g transform="translate(10.712371, 81.56175)"><path style="stroke:none" d="M 10.21875 -16.03125 C 8.351562 -16.03125 6.800781 -15.367188 5.5625 -14.046875 C 4.300781 -12.722656 3.671875 -11.0625 3.671875 -9.0625 C 3.671875 -7.082031 4.300781 -5.429688 5.5625 -4.109375 C 6.820312 -2.765625 8.375 -2.09375 10.21875 -2.09375 C 12.96875 -2.09375 14.914062 -3.46875 16.0625 -6.21875 L 18.375 -5.1875 C 17.75 -3.488281 16.757812 -2.15625 15.40625 -1.1875 C 14.039062 -0.195312 12.3125 0.296875 10.21875 0.296875 C 7.601562 0.296875 5.421875 -0.585938 3.671875 -2.359375 C 1.910156 -4.128906 1.03125 -6.363281 1.03125 -9.0625 C 1.03125 -11.75 1.921875 -13.976562 3.703125 -15.75 C 5.460938 -17.53125 7.632812 -18.421875 10.21875 -18.421875 C 13.863281 -18.421875 16.484375 -16.84375 18.078125 -13.6875 L 15.890625 -12.40625 C 14.554688 -14.820312 12.664062 -16.03125 10.21875 -16.03125 Z M 10.21875 -16.03125 "/></g></g><g style="fill:#ffffff;fill-opacity:1;"><g transform="translate(29.887278, 81.56175)"><path style="stroke:none" d="M 13.03125 -18.125 L 15.375 -18.125 L 15.375 -6.5 C 15.375 -4.363281 14.78125 -2.703125 13.59375 -1.515625 C 12.40625 -0.304688 10.71875 0.296875 8.53125 0.296875 C 6.445312 0.296875 4.785156 -0.3125 3.546875 -1.53125 C 2.304688 -2.757812 1.6875 -4.445312 1.6875 -6.59375 L 1.6875 -18.125 L 4.171875 -18.125 L 4.171875 -6.71875 C 4.171875 -5.207031 4.578125 -4.054688 5.390625 -3.265625 C 6.171875 -2.484375 7.253906 -2.09375 8.640625 -2.09375 C 10.046875 -2.09375 11.132812 -2.476562 11.90625 -3.25 C 12.65625 -4 13.03125 -5.097656 13.03125 -6.546875 Z M 13.03125 -18.125 "/></g></g><g style="fill:#ffffff;fill-opacity:1;"><g transform="translate(46.948415, 81.56175)"><path style="stroke:none" d="M 4.65625 -18.125 L 10.625 -7.90625 L 16.6875 -18.125 L 19.53125 -18.125 L 19.53125 0 L 17.046875 0 L 17.046875 -14.078125 L 11.484375 -4.890625 L 9.546875 -4.890625 L 4.171875 -14.140625 L 4.171875 0 L 1.84375 0 L 1.84375 -18.125 Z M 4.65625 -18.125 "/></g></g><g style="fill:#ffffff;fill-opacity:1;"><g transform="translate(68.312591, 81.56175)"><path style="stroke:none" d="M 4.328125 -2.296875 L 8.40625 -2.296875 C 9.476562 -2.296875 10.300781 -2.5625 10.875 -3.09375 C 11.445312 -3.613281 11.734375 -4.34375 11.734375 -5.28125 C 11.734375 -6.238281 11.429688 -6.988281 10.828125 -7.53125 C 10.203125 -8.050781 9.3125 -8.3125 8.15625 -8.3125 L 4.328125 -8.3125 Z M 7.90625 -15.828125 L 4.328125 -15.828125 L 4.328125 -10.59375 L 7.78125 -10.59375 C 8.695312 -10.59375 9.425781 -10.828125 9.96875 -11.296875 C 10.507812 -11.765625 10.78125 -12.40625 10.78125 -13.21875 C 10.78125 -14.039062 10.535156 -14.6875 10.046875 -15.15625 C 9.535156 -15.601562 8.820312 -15.828125 7.90625 -15.828125 Z M 8.515625 0 L 1.84375 0 L 1.84375 -18.125 L 8.125 -18.125 C 9.738281 -18.125 11.015625 -17.6875 11.953125 -16.8125 C 12.878906 -15.925781 13.34375 -14.773438 13.34375 -13.359375 C 13.34375 -11.648438 12.546875 -10.421875 10.953125 -9.671875 C 11.953125 -9.429688 12.765625 -8.914062 13.390625 -8.125 C 14.015625 -7.34375 14.328125 -6.367188 14.328125 -5.203125 C 14.328125 -3.648438 13.8125 -2.394531 12.78125 -1.4375 C 11.757812 -0.476562 10.335938 0 8.515625 0 Z M 8.515625 0 "/></g></g><g style="fill:#ffffff;fill-opacity:1;"><g transform="translate(83.587095, 81.56175)"><path style="stroke:none" d="M 7.75 -7.859375 L 4.328125 -7.859375 L 4.328125 0 L 1.84375 0 L 1.84375 -18.125 L 8.25 -18.125 C 10.050781 -18.125 11.453125 -17.65625 12.453125 -16.71875 C 13.441406 -15.757812 13.9375 -14.515625 13.9375 -12.984375 C 13.9375 -10.671875 12.710938 -9.101562 10.265625 -8.28125 L 14.53125 0 L 11.625 0 Z M 8.15625 -15.828125 L 4.328125 -15.828125 L 4.328125 -10.140625 L 7.984375 -10.140625 C 9.054688 -10.140625 9.882812 -10.398438 10.46875 -10.921875 C 11.039062 -11.429688 11.328125 -12.117188 11.328125 -12.984375 C 11.328125 -13.878906 11.054688 -14.578125 10.515625 -15.078125 C 9.960938 -15.578125 9.175781 -15.828125 8.15625 -15.828125 Z M 8.15625 -15.828125 "/></g></g><g style="fill:#ffffff;fill-opacity:1;"><g transform="translate(98.811267, 81.56175)"><path style="stroke:none" d="M 1.84375 0 L 1.84375 -18.125 L 12.125 -18.125 L 12.125 -15.828125 L 4.328125 -15.828125 L 4.328125 -10.59375 L 11.90625 -10.59375 L 11.90625 -8.3125 L 4.328125 -8.3125 L 4.328125 -2.296875 L 12.359375 -2.296875 L 12.359375 0 Z M 1.84375 0 "/></g></g><g style="fill:#ffffff;fill-opacity:1;"><g transform="translate(112.359003, 81.56175)"><path style="stroke:none" d=""/></g></g></g></svg>