<svg xmlns="http://www.w3.org/2000/svg" xmlns:xlink="http://www.w3.org/1999/xlink" width="800" zoomAndPan="magnify" viewBox="0 0 600 599.999999" height="800" preserveAspectRatio="xMidYMid meet" version="1.0"><defs><g/><clipPath id="7fe62b6aad"><path d="M 148 81 L 473.09375 81 L 473.09375 322.5 L 148 322.5 Z M 148 81 " clip-rule="nonzero"/></clipPath><clipPath id="116a56ecde"><path d="M 0.078125 0 L 325 0 L 325 241.5 L 0.078125 241.5 Z M 0.078125 0 " clip-rule="nonzero"/></clipPath><clipPath id="fb30c0ff96"><rect x="0" width="326" y="0" height="242"/></clipPath></defs><g clip-path="url(#7fe62b6aad)"><g transform="matrix(1, 0, 0, 1, 148, 81)"><g clip-path="url(#fb30c0ff96)"><g clip-path="url(#116a56ecde)"><path fill="#ffffff" d="M 19.960938 241.449219 L 305.03125 241.449219 C 306.738281 241.449219 308.421875 241.230469 310.074219 240.789062 C 311.726562 240.347656 313.292969 239.699219 314.773438 238.84375 C 316.253906 237.992188 317.601562 236.957031 318.808594 235.75 C 320.019531 234.542969 321.050781 233.195312 321.90625 231.714844 C 322.761719 230.234375 323.414062 228.667969 323.855469 227.015625 C 324.296875 225.367188 324.519531 223.683594 324.519531 221.976562 C 324.519531 220.265625 324.300781 218.582031 323.855469 216.933594 C 323.414062 215.28125 322.765625 213.714844 321.910156 212.234375 L 205.042969 9.855469 C 204.1875 8.371094 203.15625 7.023438 201.945312 5.8125 C 200.738281 4.601562 199.390625 3.566406 197.910156 2.710938 C 196.429688 1.851562 194.859375 1.203125 193.207031 0.757812 C 191.554688 0.316406 189.871094 0.09375 188.160156 0.09375 C 186.449219 0.09375 184.765625 0.316406 183.113281 0.757812 C 181.460938 1.203125 179.890625 1.851562 178.410156 2.710938 C 176.929688 3.566406 175.582031 4.601562 174.375 5.8125 C 173.164062 7.023438 172.132812 8.371094 171.28125 9.855469 L 122.371094 94.566406 L 113.546875 79.28125 C 112.691406 77.796875 111.660156 76.449219 110.453125 75.238281 C 109.242188 74.027344 107.898438 72.992188 106.414062 72.136719 C 104.933594 71.28125 103.367188 70.628906 101.710938 70.1875 C 100.058594 69.742188 98.375 69.519531 96.664062 69.519531 C 94.953125 69.519531 93.269531 69.742188 91.617188 70.1875 C 89.964844 70.628906 88.398438 71.28125 86.914062 72.136719 C 85.433594 72.992188 84.085938 74.027344 82.878906 75.238281 C 81.667969 76.449219 80.636719 77.796875 79.785156 79.28125 L 3.09375 212.234375 C 2.238281 213.714844 1.589844 215.28125 1.144531 216.933594 C 0.703125 218.582031 0.480469 220.265625 0.480469 221.976562 C 0.484375 223.683594 0.703125 225.367188 1.148438 227.015625 C 1.589844 228.667969 2.238281 230.234375 3.09375 231.714844 C 3.949219 233.195312 4.984375 234.542969 6.191406 235.75 C 7.402344 236.957031 8.75 237.992188 10.230469 238.84375 C 11.710938 239.699219 13.277344 240.347656 14.929688 240.789062 C 16.582031 241.230469 18.261719 241.449219 19.972656 241.449219 Z M 188.1875 13.101562 C 188.757812 13.09375 189.320312 13.164062 189.871094 13.308594 C 190.421875 13.457031 190.945312 13.671875 191.441406 13.957031 C 191.933594 14.242188 192.382812 14.585938 192.785156 14.992188 C 193.1875 15.398438 193.527344 15.851562 193.808594 16.347656 L 310.679688 218.726562 C 310.820312 218.972656 310.945312 219.226562 311.054688 219.488281 C 311.164062 219.75 311.253906 220.015625 311.328125 220.292969 C 311.398438 220.566406 311.457031 220.84375 311.492188 221.125 C 311.53125 221.40625 311.546875 221.6875 311.546875 221.972656 C 311.546875 222.253906 311.53125 222.539062 311.492188 222.820312 C 311.457031 223.101562 311.398438 223.378906 311.328125 223.652344 C 311.253906 223.925781 311.164062 224.195312 311.054688 224.457031 C 310.945312 224.71875 310.820312 224.972656 310.679688 225.21875 C 310.535156 225.464844 310.378906 225.699219 310.207031 225.925781 C 310.035156 226.148438 309.847656 226.363281 309.644531 226.5625 C 309.445312 226.761719 309.234375 226.949219 309.007812 227.121094 C 308.78125 227.296875 308.546875 227.453125 308.300781 227.59375 C 308.054688 227.734375 307.800781 227.863281 307.539062 227.96875 C 307.277344 228.078125 307.011719 228.167969 306.734375 228.242188 C 306.460938 228.316406 306.183594 228.371094 305.902344 228.410156 C 305.621094 228.445312 305.339844 228.464844 305.054688 228.464844 L 19.960938 228.464844 C 19.675781 228.464844 19.394531 228.445312 19.113281 228.410156 C 18.832031 228.371094 18.554688 228.316406 18.28125 228.242188 C 18.003906 228.167969 17.738281 228.078125 17.476562 227.96875 C 17.214844 227.863281 16.960938 227.734375 16.714844 227.59375 C 16.46875 227.453125 16.234375 227.296875 16.007812 227.121094 C 15.78125 226.949219 15.570312 226.761719 15.367188 226.5625 C 15.167969 226.363281 14.980469 226.148438 14.808594 225.925781 C 14.636719 225.699219 14.480469 225.464844 14.335938 225.21875 C 14.195312 224.972656 14.070312 224.71875 13.960938 224.457031 C 13.851562 224.195312 13.761719 223.925781 13.6875 223.652344 C 13.617188 223.378906 13.558594 223.101562 13.523438 222.820312 C 13.484375 222.539062 13.46875 222.253906 13.46875 221.972656 C 13.46875 221.6875 13.484375 221.40625 13.523438 221.125 C 13.558594 220.84375 13.617188 220.566406 13.6875 220.292969 C 13.761719 220.015625 13.851562 219.75 13.960938 219.488281 C 14.070312 219.226562 14.195312 218.972656 14.335938 218.726562 L 91.074219 85.773438 C 91.214844 85.527344 91.375 85.292969 91.546875 85.066406 C 91.71875 84.84375 91.90625 84.628906 92.105469 84.429688 C 92.308594 84.230469 92.519531 84.042969 92.746094 83.871094 C 92.96875 83.695312 93.207031 83.539062 93.453125 83.398438 C 93.695312 83.253906 93.949219 83.128906 94.214844 83.023438 C 94.476562 82.914062 94.742188 82.824219 95.015625 82.75 C 95.292969 82.675781 95.570312 82.621094 95.851562 82.582031 C 96.132812 82.546875 96.414062 82.527344 96.699219 82.527344 C 96.980469 82.527344 97.261719 82.546875 97.546875 82.582031 C 97.828125 82.621094 98.105469 82.675781 98.378906 82.75 C 98.652344 82.824219 98.921875 82.914062 99.183594 83.023438 C 99.445312 83.128906 99.699219 83.253906 99.945312 83.398438 C 100.1875 83.539062 100.425781 83.695312 100.648438 83.871094 C 100.875 84.042969 101.085938 84.230469 101.289062 84.429688 C 101.488281 84.628906 101.675781 84.84375 101.847656 85.066406 C 102.019531 85.292969 102.179688 85.527344 102.320312 85.773438 L 111.144531 101.058594 C 111.425781 101.550781 111.742188 102.019531 112.085938 102.46875 C 112.433594 102.917969 112.804688 103.34375 113.207031 103.746094 C 113.609375 104.148438 114.035156 104.519531 114.484375 104.867188 C 114.933594 105.210938 115.40625 105.527344 115.898438 105.808594 C 116.386719 106.09375 116.894531 106.34375 117.421875 106.5625 C 117.945312 106.777344 118.480469 106.960938 119.027344 107.105469 C 119.578125 107.253906 120.132812 107.363281 120.695312 107.4375 C 121.257812 107.511719 121.820312 107.550781 122.390625 107.550781 C 122.957031 107.550781 123.523438 107.511719 124.085938 107.4375 C 124.648438 107.363281 125.203125 107.253906 125.75 107.105469 C 126.296875 106.960938 126.835938 106.777344 127.359375 106.5625 C 127.882812 106.34375 128.390625 106.09375 128.882812 105.808594 C 129.371094 105.527344 129.84375 105.210938 130.292969 104.867188 C 130.742188 104.519531 131.167969 104.148438 131.570312 103.746094 C 131.972656 103.34375 132.34375 102.917969 132.691406 102.46875 C 133.035156 102.019531 133.351562 101.550781 133.632812 101.058594 L 182.5625 16.347656 C 182.84375 15.847656 183.183594 15.398438 183.585938 14.992188 C 183.988281 14.585938 184.4375 14.238281 184.929688 13.953125 C 185.425781 13.667969 185.949219 13.453125 186.5 13.308594 C 187.054688 13.164062 187.617188 13.09375 188.1875 13.101562 Z M 188.1875 13.101562 " fill-opacity="1" fill-rule="nonzero"/></g></g></g></g><g fill="#ffffff" fill-opacity="1"><g transform="translate(23.588235, 455.23544)"><g><path d="M 43.640625 -68.484375 C 35.691406 -68.484375 29.0625 -65.648438 23.75 -59.984375 C 18.375 -54.328125 15.6875 -47.234375 15.6875 -38.703125 C 15.6875 -30.242188 18.375 -23.179688 23.75 -17.515625 C 29.125 -11.785156 35.753906 -8.921875 43.640625 -8.921875 C 55.398438 -8.921875 63.710938 -14.796875 68.578125 -26.546875 L 78.46875 -22.140625 C 75.820312 -14.898438 71.597656 -9.203125 65.796875 -5.046875 C 59.984375 -0.816406 52.597656 1.296875 43.640625 1.296875 C 32.460938 1.296875 23.144531 -2.503906 15.6875 -10.109375 C 8.164062 -17.628906 4.40625 -27.160156 4.40625 -38.703125 C 4.40625 -50.171875 8.203125 -59.703125 15.796875 -67.296875 C 23.328125 -74.890625 32.609375 -78.6875 43.640625 -78.6875 C 59.191406 -78.6875 70.375 -71.953125 77.1875 -58.484375 L 67.828125 -53 C 62.171875 -63.320312 54.109375 -68.484375 43.640625 -68.484375 Z M 43.640625 -68.484375 "/></g></g></g><g fill="#ffffff" fill-opacity="1"><g transform="translate(105.500292, 455.23544)"><g><path d="M 55.6875 -77.40625 L 65.6875 -77.40625 L 65.6875 -27.734375 C 65.6875 -18.628906 63.140625 -11.535156 58.046875 -6.453125 C 52.960938 -1.285156 45.757812 1.296875 36.4375 1.296875 C 27.550781 1.296875 20.457031 -1.320312 15.15625 -6.5625 C 9.851562 -11.789062 7.203125 -18.992188 7.203125 -28.171875 L 7.203125 -77.40625 L 17.84375 -77.40625 L 17.84375 -28.703125 C 17.84375 -22.253906 19.5625 -17.34375 23 -13.96875 C 26.375 -10.601562 31 -8.921875 36.875 -8.921875 C 42.894531 -8.921875 47.550781 -10.570312 50.84375 -13.875 C 54.070312 -17.09375 55.6875 -21.785156 55.6875 -27.953125 Z M 55.6875 -77.40625 "/></g></g></g><g fill="#ffffff" fill-opacity="1"><g transform="translate(178.382674, 455.23544)"><g><path d="M 19.890625 -77.40625 L 45.359375 -33.75 L 71.265625 -77.40625 L 83.421875 -77.40625 L 83.421875 0 L 72.78125 0 L 72.78125 -60.09375 L 49.015625 -20.859375 L 40.75 -20.859375 L 17.84375 -60.421875 L 17.84375 0 L 7.84375 0 L 7.84375 -77.40625 Z M 19.890625 -77.40625 "/></g></g></g><g fill="#ffffff" fill-opacity="1"><g transform="translate(269.646911, 455.23544)"><g><path d="M 18.484375 -9.78125 L 35.90625 -9.78125 C 40.488281 -9.78125 44 -10.925781 46.4375 -13.21875 C 48.875 -15.445312 50.09375 -18.566406 50.09375 -22.578125 C 50.09375 -26.660156 48.800781 -29.847656 46.21875 -32.140625 C 43.570312 -34.359375 39.773438 -35.46875 34.828125 -35.46875 L 18.484375 -35.46875 Z M 33.75 -67.625 L 18.484375 -67.625 L 18.484375 -45.25 L 33.21875 -45.25 C 37.15625 -45.25 40.269531 -46.253906 42.5625 -48.265625 C 44.863281 -50.273438 46.015625 -53 46.015625 -56.4375 C 46.015625 -59.945312 44.972656 -62.707031 42.890625 -64.71875 C 40.742188 -66.65625 37.695312 -67.625 33.75 -67.625 Z M 36.328125 0 L 7.84375 0 L 7.84375 -77.40625 L 34.71875 -77.40625 C 41.601562 -77.40625 47.050781 -75.539062 51.0625 -71.8125 C 55 -68.007812 56.96875 -63.097656 56.96875 -57.078125 C 56.96875 -49.773438 53.566406 -44.507812 46.765625 -41.28125 C 51.066406 -40.28125 54.539062 -38.09375 57.1875 -34.71875 C 59.84375 -31.351562 61.171875 -27.195312 61.171875 -22.25 C 61.171875 -15.582031 58.984375 -10.207031 54.609375 -6.125 C 50.234375 -2.039062 44.140625 0 36.328125 0 Z M 36.328125 0 "/></g></g></g><g fill="#ffffff" fill-opacity="1"><g transform="translate(334.897045, 455.23544)"><g><path d="M 33.109375 -33.546875 L 18.484375 -33.546875 L 18.484375 0 L 7.84375 0 L 7.84375 -77.40625 L 35.265625 -77.40625 C 42.929688 -77.40625 48.914062 -75.394531 53.21875 -71.375 C 57.445312 -67.289062 59.5625 -61.988281 59.5625 -55.46875 C 59.5625 -45.582031 54.328125 -38.882812 43.859375 -35.375 L 62.03125 0 L 49.671875 0 Z M 34.828125 -67.625 L 18.484375 -67.625 L 18.484375 -43.328125 L 34.078125 -43.328125 C 38.660156 -43.328125 42.207031 -44.4375 44.71875 -46.65625 C 47.15625 -48.800781 48.375 -51.738281 48.375 -55.46875 C 48.375 -59.269531 47.226562 -62.242188 44.9375 -64.390625 C 42.570312 -66.546875 39.203125 -67.625 34.828125 -67.625 Z M 34.828125 -67.625 "/></g></g></g><g fill="#ffffff" fill-opacity="1"><g transform="translate(399.932214, 455.23544)"><g><path d="M 7.84375 0 L 7.84375 -77.40625 L 51.8125 -77.40625 L 51.8125 -67.625 L 18.484375 -67.625 L 18.484375 -45.25 L 50.84375 -45.25 L 50.84375 -35.46875 L 18.484375 -35.46875 L 18.484375 -9.78125 L 52.78125 -9.78125 L 52.78125 0 Z M 7.84375 0 "/></g></g></g><g fill="#ffffff" fill-opacity="1"><g transform="translate(457.765159, 455.23544)"><g/></g></g><g fill="#ffffff" fill-opacity="1"><g transform="translate(483.026754, 455.23544)"><g><path d="M 18.484375 -77.40625 L 18.484375 0 L 7.84375 0 L 7.84375 -77.40625 Z M 18.484375 -77.40625 "/></g></g></g><g fill="#ffffff" fill-opacity="1"><g transform="translate(509.36327, 455.23544)"><g><path d="M 61.8125 0 L 54.5 -19.03125 L 20 -19.03125 L 12.46875 0 L 1.1875 0 L 32.578125 -77.40625 L 43.21875 -77.40625 L 73.421875 0 Z M 37.625 -62.5625 L 23.65625 -28.703125 L 50.84375 -28.703125 Z M 37.625 -62.5625 "/></g></g></g><g fill="#ffffff" fill-opacity="1"><g transform="translate(583.967121, 455.23544)"><g/></g></g></svg>